<svg xmlns="http://www.w3.org/2000/svg" width="90" height="55.188" viewBox="0 0 90 55.188"><g transform="translate(-0.274 -0.3)"><g transform="translate(23.725 0.3)"><path d="M40.984,17.418a7.087,7.087,0,0,0,1.951-4.109A7.1,7.1,0,0,0,40.984,9.2a25.3,25.3,0,0,0-39.033,0A7.112,7.112,0,0,0,0,13.308a7.1,7.1,0,0,0,1.951,4.109,25.288,25.288,0,0,0,16.59,9V25.082a12.1,12.1,0,1,1,5.855,0v1.339a25.3,25.3,0,0,0,16.588-9" transform="translate(0 0)" fill="#1a4fa6"/><path d="M13.271,6.654a6.636,6.636,0,1,0-6.636,6.653,6.645,6.645,0,0,0,6.636-6.653" transform="translate(14.833 6.655)" fill="#2bbefa"/><path d="M8.536,12.329H5.856V4.305h2.3c3.867,0,5.7,1.19,5.7,3.993,0,2.532-1.877,4.031-5.322,4.031Zm8.833,6.458c-.782-2-1.537-3.615-3.686-4.423,3.806-.812,6.028-3.4,6.028-7.016C19.711,2.476,16.211,0,9.367,0H0V4.318A13.851,13.851,0,0,1,3.708,13.9,14.483,14.483,0,0,1,0,23.706v4.474H5.855V16.831H7.207c2.673,0,3.93.656,4.861,3.215l2.96,8.134h6.049Z" transform="translate(45.471 26.421)" fill="#1a4fa6"/></g><g transform="translate(0.274 26.051)"><path d="M0,0H22.471V29.437H0Z" transform="translate(0.005 0)" fill="none"/><g transform="translate(0 0)"><path d="M22.477,6.279A18.851,18.851,0,0,0,15.9,4.651c-6.2,0-9.837,4.349-9.837,10.263,0,5.372,3.632,9.871,10.079,9.871,2.109,0,4.188-.976,6.338-1.628v4.906c-2.474.652-4.311,1.375-6.825,1.375C5.677,29.437,0,23.587,0,14.914,0,6.2,5.88,0,15.368,0a26.52,26.52,0,0,1,7.109,1.374Z" transform="translate(0)" fill="#1a4fa6"/></g></g><g transform="translate(28.09 26.639)"><path d="M19.977,28.259V0L14.1,0V4.317H0v6.869H11.164v5.1H0V23.55H14.1v4.708Z" transform="translate(0 0)" fill="#1a4fa6"/><path d="M0,19.232H2.938c6.088,0,10.184-3.536,10.184-9.616C13.122,3.456,9.3,0,2.938,0H0Z" transform="translate(25.853 4.318)" fill="#1a4fa6"/></g></g></svg>